<svg width="1181" height="16" viewBox="0 0 1181 16" fill="none" xmlns="http://www.w3.org/2000/svg">
<path d="M0.5 15.05V0" stroke="#687984"/>
<path d="M118.5 9.04V0" stroke="#687984"/>
<path d="M59.5 9.04V0" stroke="#687984"/>
<path d="M177.5 9.04V0" stroke="#687984"/>
<path d="M236.5 15.05V0" stroke="#687984"/>
<path d="M354.5 9.04V0" stroke="#687984"/>
<path d="M295.5 9.04V0" stroke="#687984"/>
<path d="M413.5 9.04V0" stroke="#687984"/>
<path d="M472.5 15.05V0" stroke="#687984"/>
<path d="M590.5 9.04V0" stroke="#687984"/>
<path d="M531.5 9.04V0" stroke="#687984"/>
<path d="M649.5 9.04V0" stroke="#687984"/>
<path d="M708.5 15.05V0" stroke="#687984"/>
<path d="M1062.5 9.04V0" stroke="#687984"/>
<path d="M1003.5 9.04V0" stroke="#687984"/>
<path d="M1121.5 9.04V0" stroke="#687984"/>
<path d="M1180.5 15.05V0" stroke="#687984"/>
<path d="M826.5 9.04V0" stroke="#687984"/>
<path d="M767.5 9.04V0" stroke="#687984"/>
<path d="M885.5 9.04V0" stroke="#687984"/>
<path d="M944.5 15.05V0" stroke="#687984"/>
</svg>
