<svg width="14" height="17" viewBox="0 0 14 17" fill="none" xmlns="http://www.w3.org/2000/svg">
<path d="M6.83741 0C3.06887 0 0 3.06887 0 6.83741C0 7.75184 0.748167 8.5 1.66259 8.5C2.57702 8.5 3.32518 7.75184 3.32518 6.83741C3.32518 4.89772 4.89772 3.32518 6.83741 3.32518C8.7771 3.32518 10.3496 4.89772 10.3496 6.83741C10.3496 7.40546 10.0864 8.11207 9.64304 8.72861C9.14426 9.42136 8.47922 9.93399 7.77262 10.1834C6.22779 10.7376 5.18867 12.2131 5.18867 13.848V15.3374C5.18867 16.2518 5.93684 17 6.85127 17C7.29462 17 7.71027 16.8268 8.02894 16.5082C8.3476 16.1826 8.51386 15.7669 8.50693 15.3305V13.8411C8.50693 13.5986 8.65241 13.3908 8.87409 13.3215C10.1903 12.8574 11.4026 11.943 12.2893 10.7445C13.1899 9.53912 13.6817 8.1467 13.6817 6.83741C13.6748 3.06887 10.606 0 6.83741 0Z" fill="#263138"/>
</svg>
