<svg width="27" height="27" viewBox="0 0 27 27" fill="none" xmlns="http://www.w3.org/2000/svg">
<path d="M3.77778 5.16667V4.16667H2.70889L2.77999 5.23319L3.77778 5.16667ZM23.2222 5.16667L24.22 5.23319L24.2911 4.16667H23.2222V5.16667ZM4.9938 23.407L5.99158 23.3405L4.9938 23.407ZM22.0062 23.407L21.0084 23.3405L22.0062 23.407ZM9.33333 1V0C8.78105 0 8.33333 0.447715 8.33333 1L9.33333 1ZM17.6667 1H18.6667C18.6667 0.447715 18.219 0 17.6667 0V1ZM1 4.16667C0.447715 4.16667 0 4.61438 0 5.16667C0 5.71895 0.447715 6.16667 1 6.16667V4.16667ZM26 6.16667C26.5523 6.16667 27 5.71895 27 5.16667C27 4.61438 26.5523 4.16667 26 4.16667V6.16667ZM11.7222 10.7222C11.7222 10.1699 11.2745 9.72222 10.7222 9.72222C10.1699 9.72222 9.72222 10.1699 9.72222 10.7222H11.7222ZM9.72222 20.4444C9.72222 20.9967 10.1699 21.4444 10.7222 21.4444C11.2745 21.4444 11.7222 20.9967 11.7222 20.4444H9.72222ZM17.2778 10.7222C17.2778 10.1699 16.8301 9.72222 16.2778 9.72222C15.7255 9.72222 15.2778 10.1699 15.2778 10.7222H17.2778ZM15.2778 20.4444C15.2778 20.9967 15.7255 21.4444 16.2778 21.4444C16.8301 21.4444 17.2778 20.9967 17.2778 20.4444H15.2778ZM3.77778 6.16667H23.2222V4.16667H3.77778V6.16667ZM22.2244 5.10015L21.0084 23.3405L23.004 23.4735L24.22 5.23319L22.2244 5.10015ZM19.2346 25H7.76542V27H19.2346V25ZM5.99158 23.3405L4.77556 5.10015L2.77999 5.23319L3.99601 23.4735L5.99158 23.3405ZM7.76542 25C6.82949 25 6.05384 24.2743 5.99158 23.3405L3.99601 23.4735C4.12831 25.458 5.77656 27 7.76542 27V25ZM21.0084 23.3405C20.9462 24.2743 20.1705 25 19.2346 25V27C21.2234 27 22.8717 25.458 23.004 23.4735L21.0084 23.3405ZM10.3333 5.16667V1H8.33333V5.16667H10.3333ZM9.33333 2H17.6667V0H9.33333V2ZM16.6667 1V5.16667H18.6667V1H16.6667ZM1 6.16667H26V4.16667H1V6.16667ZM9.72222 10.7222V20.4444H11.7222V10.7222H9.72222ZM15.2778 10.7222V20.4444H17.2778V10.7222H15.2778Z" fill="white"/>
</svg>
